<svg id="2ce7fbb6-fcc6-4412-97a4-5d3c6990e38f" data-name="Calque 1" xmlns="http://www.w3.org/2000/svg" viewBox="0 0 833.09 661.66"><title>folder</title><path d="M1092.63,108.57c-.17-18.75-15.87-34.56-34.66-34.5-30.87.1-61.75,0-92.62.08-3,0-5-.66-6.57-3.47-2.71-4.77-6.81-8.32-11.46-11.27A41.18,41.18,0,0,0,936,54.6a30.87,30.87,0,0,0-13.65,0c-6.4,2.11-12.67,4.44-17.6,9.35a33.4,33.4,0,0,0-6.27,7.83,3.92,3.92,0,0,1-4.19,2.34c-.75-.06-1.52,0-2.27,0q-177.73,0-355.47.07c-3.87,0-6.2-1-8.41-4.43a33.16,33.16,0,0,0-17.35-13.58,21.82,21.82,0,0,0-6.39-1.57H290.55c-6,.44-9,2.66-13.17,5.21-7.82,4.84-13.32,11.53-15.8,20.32a29.65,29.65,0,0,0-.77,4.38c0,17.5-.16,35-.16,52.5h-.15l-.94,543.42c0,19.35,16.12,35.08,35.94,35.08h760.67c20,0,36.33-15.89,36.33-35.42V120.28C1092.64,116.36,1092.67,112.47,1092.63,108.57Z" transform="translate(-259.56 -53.84)" fill="#4b3835"/><path d="M1056.17,714.5H295.5c-19.27,0-34.94-15.29-34.94-34.08l.93-540.5a11.93,11.93,0,0,1,.24-2,34.44,34.44,0,0,1,34-26.76q98.8,0,197.6,0c1.19,0,2.39-.07,3.57,0a4.42,4.42,0,0,0,4.28-2.33c7.51-11.61,18.07-16.69,32-16.67q177.61.28,355.22.11c5.12,0,5.12,0,5.12,5.2q0,64.84,0,129.67c0,36-.16,71.93.13,107.9.11,13.7,6.22,25.09,16.33,34.18,10.54,9.48,23.08,13.52,37.15,12.35,12.74-1.06,23.46-6.56,32.12-15.92,9.66-10.43,13.22-23.11,13.23-37q0-101.24,0-202.47c0-10.08,1.17-8.54-8.59-8.63-7-.06-6.45-.5-6.45,6.54q0,104,0,208a34.63,34.63,0,1,1-69.26.66c-.13-34.12,0-68.25,0-102.37q0-67.27-.05-134.55c0-2.82.68-3.64,3.61-3.61,15.05.17,30.11.1,45.16.1,34.12,0,68.25-.1,102.37,0,12.93.05,22.38,6.43,28.79,17.47a33.09,33.09,0,0,1,3.45,8.16V680.08C1091.5,699.06,1075.65,714.5,1056.17,714.5Z" transform="translate(-259.56 -53.84)" fill="#b25441"/></svg>